<?xml version="1.0" encoding="UTF-8"?>
<svg id="Layer_1" data-name="Layer 1" xmlns="http://www.w3.org/2000/svg" viewBox="0 0 268.14 304.26">
  <defs>
    <style>
      .cls-1 {
        fill: #0052ff;
      }
    </style>
  </defs>
  <path class="cls-1" d="M124.07,143.76L19.84,39.54c-7.32-7.32-19.84-2.14-19.84,8.22v208.79c0,10.31,12.47,15.48,19.76,8.18l104.31-104.31c4.6-4.6,4.6-12.05,0-16.65Z"/>
  <path class="cls-1" d="M143.76,180.19l-104.23,104.23c-7.32,7.32-2.14,19.84,8.22,19.84h208.79c10.31,0,15.48-12.47,8.18-19.76l-104.31-104.31c-4.6-4.6-12.05-4.6-16.65,0Z"/>
  <path class="cls-1" d="M160.49,124.07l104.23-104.23c7.32-7.32,2.14-19.84-8.22-19.84H47.71c-10.31,0-15.48,12.47-8.18,19.76l104.31,104.31c4.6,4.6,12.05,4.6,16.65,0Z"/>
</svg>